G04 Layer_Color=32896*
%FSLAX25Y25*%
%MOIN*%
G70*
G01*
G75*
%ADD10C,0.00800*%
%ADD16C,0.01000*%
D10*
X157500Y347500D02*
Y422500D01*
X155000Y350000D02*
X157500Y347500D01*
X160000Y350000D01*
X167500Y347500D02*
X170000Y350000D01*
X165000D02*
X167500Y347500D01*
Y422500D01*
X42500Y347500D02*
Y422500D01*
X40000Y350000D02*
X42500Y347500D01*
X45000Y350000D01*
X32500Y347500D02*
X35000Y350000D01*
X30000D02*
X32500Y347500D01*
Y422500D01*
X129000Y256000D02*
X127334D01*
X128167D01*
Y260998D01*
X129000Y260165D01*
X168500Y427000D02*
X166834D01*
X167667D01*
Y431998D01*
X168500Y431165D01*
X171500Y337000D02*
X169834D01*
X170667D01*
Y341998D01*
X171500Y341165D01*
X167335D02*
X166502Y341998D01*
X164836D01*
X164002Y341165D01*
Y337833D01*
X164836Y337000D01*
X166502D01*
X167335Y337833D01*
Y341165D01*
X130500Y166000D02*
X128834D01*
X129667D01*
Y170998D01*
X130500Y170165D01*
X126335D02*
X125502Y170998D01*
X123836D01*
X123002Y170165D01*
Y166833D01*
X123836Y166000D01*
X125502D01*
X126335Y166833D01*
Y170165D01*
X160500Y427000D02*
X158834D01*
X159667D01*
Y431998D01*
X160500Y431165D01*
X156335Y427000D02*
X154669D01*
X155502D01*
Y431998D01*
X156335Y431165D01*
X155668Y337000D02*
X159000D01*
X155668Y340332D01*
Y341165D01*
X156501Y341998D01*
X158167D01*
X159000Y341165D01*
X154002D02*
X153169Y341998D01*
X151502D01*
X150669Y341165D01*
Y337833D01*
X151502Y337000D01*
X153169D01*
X154002Y337833D01*
Y341165D01*
X130500Y156000D02*
X128834D01*
X129667D01*
Y160998D01*
X130500Y160165D01*
X126335Y156000D02*
X124669D01*
X125502D01*
Y160998D01*
X126335Y160165D01*
X127168Y66000D02*
X130500D01*
X127168Y69332D01*
Y70165D01*
X128001Y70998D01*
X129667D01*
X130500Y70165D01*
X125502D02*
X124669Y70998D01*
X123002D01*
X122169Y70165D01*
Y66833D01*
X123002Y66000D01*
X124669D01*
X125502Y66833D01*
Y70165D01*
X47500Y341165D02*
X46667Y341998D01*
X45001D01*
X44168Y341165D01*
Y340332D01*
X45001Y339499D01*
X45834D01*
X45001D01*
X44168Y338666D01*
Y337833D01*
X45001Y337000D01*
X46667D01*
X47500Y337833D01*
X42502Y341165D02*
X41669Y341998D01*
X40002D01*
X39169Y341165D01*
Y337833D01*
X40002Y337000D01*
X41669D01*
X42502Y337833D01*
Y341165D01*
X43668Y427000D02*
X47000D01*
X43668Y430332D01*
Y431165D01*
X44501Y431998D01*
X46167D01*
X47000Y431165D01*
X42002Y427000D02*
X40336D01*
X41169D01*
Y431998D01*
X42002Y431165D01*
X32501Y337000D02*
Y341998D01*
X35000Y339499D01*
X31668D01*
X30002Y341165D02*
X29169Y341998D01*
X27502D01*
X26669Y341165D01*
Y337833D01*
X27502Y337000D01*
X29169D01*
X30002Y337833D01*
Y341165D01*
X34500Y431165D02*
X33667Y431998D01*
X32001D01*
X31168Y431165D01*
Y430332D01*
X32001Y429499D01*
X32834D01*
X32001D01*
X31168Y428666D01*
Y427833D01*
X32001Y427000D01*
X33667D01*
X34500Y427833D01*
X29502Y427000D02*
X27836D01*
X28669D01*
Y431998D01*
X29502Y431165D01*
X76500Y160165D02*
X75667Y160998D01*
X74001D01*
X73168Y160165D01*
Y159332D01*
X74001Y158499D01*
X74834D01*
X74001D01*
X73168Y157666D01*
Y156833D01*
X74001Y156000D01*
X75667D01*
X76500Y156833D01*
X71502Y156000D02*
X69836D01*
X70669D01*
Y160998D01*
X71502Y160165D01*
X74501Y66000D02*
Y70998D01*
X77000Y68499D01*
X73668D01*
X72002Y70165D02*
X71169Y70998D01*
X69502D01*
X68669Y70165D01*
Y66833D01*
X69502Y66000D01*
X71169D01*
X72002Y66833D01*
Y70165D01*
X73168Y256000D02*
X76500D01*
X73168Y259332D01*
Y260165D01*
X74001Y260998D01*
X75667D01*
X76500Y260165D01*
X71502Y256000D02*
X69836D01*
X70669D01*
Y260998D01*
X71502Y260165D01*
X77333Y170165D02*
X76500Y170998D01*
X74834D01*
X74001Y170165D01*
Y169332D01*
X74834Y168499D01*
X75667D01*
X74834D01*
X74001Y167666D01*
Y166833D01*
X74834Y166000D01*
X76500D01*
X77333Y166833D01*
X72335Y170165D02*
X71502Y170998D01*
X69836D01*
X69002Y170165D01*
Y166833D01*
X69836Y166000D01*
X71502D01*
X72335Y166833D01*
Y170165D01*
D16*
X97000Y218499D02*
Y214500D01*
X100999Y218499D01*
X101998D01*
X102998Y217499D01*
Y215500D01*
X101998Y214500D01*
X100999Y220498D02*
X97000Y224497D01*
X98999Y222497D01*
X100999Y224497D01*
X97000Y220498D01*
Y226496D02*
Y228496D01*
Y227496D01*
X102998D01*
X101998Y226496D01*
Y231494D02*
X102998Y232494D01*
Y234493D01*
X101998Y235493D01*
X98000D01*
X97000Y234493D01*
Y232494D01*
X98000Y231494D01*
X101998D01*
X102998Y243491D02*
Y245490D01*
Y244490D01*
X97000D01*
Y243491D01*
Y245490D01*
X102998Y248489D02*
X97000D01*
Y251488D01*
X98000Y252488D01*
X101998D01*
X102998Y251488D01*
Y248489D01*
Y258486D02*
Y254487D01*
X97000D01*
Y258486D01*
X99999Y254487D02*
Y256486D01*
X97000Y262485D02*
X98999Y260485D01*
X100999D01*
X102998Y262485D01*
X97000Y269482D02*
Y265483D01*
X100999Y269482D01*
X101998D01*
X102998Y268482D01*
Y266483D01*
X101998Y265483D01*
X97000Y271482D02*
X98999Y273481D01*
X100999D01*
X102998Y271482D01*
X101998Y283478D02*
X100999D01*
Y282478D01*
Y284477D01*
Y283478D01*
X98000D01*
X97000Y284477D01*
Y288476D02*
Y290475D01*
X98000Y291475D01*
X99999D01*
X100999Y290475D01*
Y288476D01*
X99999Y287476D01*
X98000D01*
X97000Y288476D01*
Y302471D02*
X102998D01*
X99999Y299472D01*
Y303471D01*
X101998Y305471D02*
X102998Y306470D01*
Y308470D01*
X101998Y309469D01*
X98000D01*
X97000Y308470D01*
Y306470D01*
X98000Y305471D01*
X101998D01*
X97000Y317467D02*
X102998D01*
Y320466D01*
X101998Y321465D01*
X99999D01*
X98999Y320466D01*
Y317467D01*
X97000Y323465D02*
Y325464D01*
Y324464D01*
X100999D01*
Y323465D01*
X97000Y328463D02*
X100999D01*
Y331462D01*
X99999Y332462D01*
X97000D01*
X102998Y340459D02*
X97000D01*
Y343458D01*
X98000Y344458D01*
X101998D01*
X102998Y343458D01*
Y340459D01*
X97000Y346457D02*
Y348457D01*
Y347457D01*
X100999D01*
Y346457D01*
X95001Y351456D02*
X100999D01*
Y354455D01*
X99999Y355454D01*
X98000D01*
X97000Y354455D01*
Y351456D01*
X102998Y363452D02*
X97000D01*
Y366451D01*
X98000Y367450D01*
X98999D01*
X99999Y366451D01*
Y363452D01*
Y366451D01*
X100999Y367450D01*
X101998D01*
X102998Y366451D01*
Y363452D01*
X100999Y369450D02*
X97000D01*
X98999D01*
X99999Y370449D01*
X100999Y371449D01*
Y372449D01*
X97000Y378447D02*
Y376448D01*
X98000Y375448D01*
X99999D01*
X100999Y376448D01*
Y378447D01*
X99999Y379447D01*
X98999D01*
Y375448D01*
X100999Y382446D02*
Y384445D01*
X99999Y385445D01*
X97000D01*
Y382446D01*
X98000Y381446D01*
X98999Y382446D01*
Y385445D01*
X97000Y387444D02*
X102998D01*
X98999D02*
X100999Y390443D01*
X98999Y387444D02*
X97000Y390443D01*
Y394442D02*
Y396441D01*
X98000Y397441D01*
X99999D01*
X100999Y396441D01*
Y394442D01*
X99999Y393442D01*
X98000D01*
X97000Y394442D01*
X100999Y399440D02*
X98000D01*
X97000Y400440D01*
Y403439D01*
X100999D01*
X101998Y406438D02*
X100999D01*
Y405438D01*
Y407438D01*
Y406438D01*
X98000D01*
X97000Y407438D01*
M02*
