M48
;Layer_Color=9474304
;FILE_FORMAT=2:5
INCH,LZ
;TYPE=PLATED
T1F00S00C0.03543
%
T01
X0085Y00685
Y00785
Y00885
Y00985
Y01085
Y01185
Y01285
Y01385
Y01485
Y01585
Y01685
Y01785
Y01885
Y01985
Y02085
X0115
Y01985
Y01885
Y01785
Y01685
Y01585
Y01485
Y01385
Y01285
Y01185
Y01085
Y00985
Y00885
Y00785
Y00685
X002Y03395
X001Y03395
Y03495
Y03595
X002Y03595
Y03495
X0085Y02585
Y02485
Y02385
Y02285
Y02185
X0115
Y02285
Y02385
Y02485
Y02585
X018Y03395
Y03495
Y03595
X019
Y03495
Y03395
X019Y03695
X018
Y03795
Y03895
Y03995
X019
X019Y03895
Y03795
Y04095
Y04195
Y04295
X018
Y04195
Y04095
X002
Y04195
Y04295
X001
Y04195
Y04095
Y03995
Y03895
Y03795
X002
Y03895
Y03995
Y03695
X001Y03695
M30
