G04 Layer_Physical_Order=2*
G04 Layer_Color=16711680*
%FSLAX25Y25*%
%MOIN*%
G70*
G01*
G75*
%ADD10C,0.00800*%
%ADD11C,0.05906*%
%ADD12R,0.05906X0.05906*%
D10*
X31500Y429500D02*
X63000Y398000D01*
X31000Y409500D02*
X59800Y380700D01*
X31000Y399500D02*
X58200Y372300D01*
X31000Y389500D02*
X56600Y363900D01*
X31000Y379500D02*
X55000Y355500D01*
X31000Y369500D02*
X53400Y347100D01*
X30500Y359500D02*
X51800Y338200D01*
X63000Y327865D02*
X79900Y310965D01*
X61400Y327202D02*
X78300Y310302D01*
X59800Y326539D02*
X76700Y309639D01*
X59800Y326539D02*
Y380700D01*
X61400Y327202D02*
Y389100D01*
X63000Y327865D02*
Y398000D01*
X20000Y429500D02*
X31500D01*
X20000Y419500D02*
X31000D01*
X61400Y389100D01*
X20000Y409500D02*
X31000D01*
X20000Y399500D02*
X31000D01*
X20000Y389500D02*
X31000D01*
X20000Y379500D02*
X31000D01*
X20000Y369500D02*
X31000D01*
X20000Y359500D02*
X30500D01*
X20000Y349500D02*
X31000D01*
X20000Y339500D02*
X31000D01*
X169000D02*
X180000D01*
X169000Y349500D02*
X180000D01*
X169500Y359500D02*
X180000D01*
X169000Y369500D02*
X180000D01*
X169000Y379500D02*
X180000D01*
X169000Y389500D02*
X180000D01*
X169000Y399500D02*
X180000D01*
X169000Y409500D02*
X180000D01*
X138600Y389100D02*
X169000Y419500D01*
X180000D01*
X168500Y429500D02*
X180000D01*
X137000Y327865D02*
Y398000D01*
X138600Y327202D02*
Y389100D01*
X140200Y326539D02*
Y380700D01*
X141800Y325876D02*
Y372300D01*
X124900Y308976D02*
X141800Y325876D01*
X123300Y309639D02*
X140200Y326539D01*
X121700Y310302D02*
X138600Y327202D01*
X120100Y310965D02*
X137000Y327865D01*
X148200Y338200D02*
X169500Y359500D01*
X146600Y347100D02*
X169000Y369500D01*
X145000Y355500D02*
X169000Y379500D01*
X143400Y363900D02*
X169000Y389500D01*
X141800Y372300D02*
X169000Y399500D01*
X140200Y380700D02*
X169000Y409500D01*
X137000Y398000D02*
X168500Y429500D01*
X31000Y339500D02*
X65500Y305000D01*
X50200Y322563D02*
X67100Y305663D01*
X50200Y322563D02*
Y330300D01*
X31000Y349500D02*
X50200Y330300D01*
X51800Y323225D02*
X68700Y306326D01*
X51800Y323225D02*
Y338200D01*
X53400Y323888D02*
X70300Y306988D01*
X53400Y323888D02*
Y347100D01*
X55000Y324551D02*
X71900Y307651D01*
X55000Y324551D02*
Y355500D01*
X56600Y325214D02*
Y363900D01*
Y325214D02*
X73500Y308314D01*
X58200Y325876D02*
X75100Y308976D01*
X58200Y325876D02*
Y372300D01*
X134500Y305000D02*
X169000Y339500D01*
X132900Y305663D02*
X149800Y322563D01*
Y330300D01*
X169000Y349500D01*
X131300Y306326D02*
X148200Y323225D01*
Y338200D01*
X129700Y306988D02*
X146600Y323888D01*
Y347100D01*
X128100Y307651D02*
X145000Y324551D01*
Y355500D01*
X126500Y308314D02*
X143400Y325214D01*
Y363900D01*
X70300Y113200D02*
Y306988D01*
X65500Y88000D02*
Y305000D01*
X67100Y96400D02*
Y305000D01*
X68700Y104800D02*
Y306326D01*
X71900Y121600D02*
Y307651D01*
X73500Y130000D02*
Y308314D01*
X75100Y138400D02*
Y308976D01*
X76700Y146800D02*
Y309639D01*
X78300Y155200D02*
Y310302D01*
X79900Y163600D02*
Y310965D01*
X129700Y113200D02*
Y306988D01*
X134500Y88000D02*
Y305000D01*
X132900Y96400D02*
Y305663D01*
X131300Y104800D02*
Y306326D01*
X128100Y121600D02*
Y307651D01*
X126500Y130000D02*
Y308314D01*
X124900Y138400D02*
Y308976D01*
X123300Y146800D02*
Y309639D01*
X121700Y155200D02*
Y310302D01*
X120100Y163600D02*
Y310965D01*
X65500Y88000D02*
X85000Y68500D01*
X73500Y130000D02*
X85000Y118500D01*
X67100Y96400D02*
X85000Y78500D01*
X75100Y138400D02*
X85000Y128500D01*
X68700Y104800D02*
X85000Y88500D01*
X76700Y146800D02*
X85000Y138500D01*
X78300Y155200D02*
X85000Y148500D01*
X70300Y113200D02*
X85000Y98500D01*
X79900Y163600D02*
X85000Y158500D01*
X71900Y121600D02*
X85000Y108500D01*
X115000Y118500D02*
X126500Y130000D01*
X115000Y158500D02*
X120100Y163600D01*
X115000Y68500D02*
X134500Y88000D01*
X115000Y88500D02*
X131300Y104800D01*
X115000Y138500D02*
X123300Y146800D01*
X115000Y78500D02*
X132900Y96400D01*
X115000Y108500D02*
X128100Y121600D01*
X115000Y128500D02*
X124900Y138400D01*
X115000Y98500D02*
X129700Y113200D01*
X115000Y148500D02*
X121700Y155200D01*
D11*
X190000Y339500D02*
D03*
X180000D02*
D03*
X190000Y349500D02*
D03*
X180000D02*
D03*
X190000Y359500D02*
D03*
X180000D02*
D03*
X190000Y369500D02*
D03*
X180000D02*
D03*
X190000Y379500D02*
D03*
X180000D02*
D03*
X190000Y389500D02*
D03*
X180000D02*
D03*
X190000Y399500D02*
D03*
X180000D02*
D03*
X190000Y409500D02*
D03*
X180000Y409500D02*
D03*
X190000Y419500D02*
D03*
X180000D02*
D03*
X190000Y429500D02*
D03*
X20000Y339500D02*
D03*
X10000Y339500D02*
D03*
X20000Y349500D02*
D03*
X10000Y349500D02*
D03*
X20000Y359500D02*
D03*
X10000Y359500D02*
D03*
X20000Y369500D02*
D03*
X10000Y369500D02*
D03*
X20000Y379500D02*
D03*
X10000D02*
D03*
X20000Y389500D02*
D03*
X10000Y389500D02*
D03*
X20000Y399500D02*
D03*
X10000D02*
D03*
X20000Y409500D02*
D03*
X10000Y409500D02*
D03*
X20000Y419500D02*
D03*
X10000D02*
D03*
X20000Y429500D02*
D03*
X115000Y258500D02*
D03*
X85000Y248500D02*
D03*
X115000D02*
D03*
X85000Y238500D02*
D03*
X115000D02*
D03*
X85000Y228500D02*
D03*
X115000D02*
D03*
X85000Y218500D02*
D03*
X115000D02*
D03*
X85000Y208500D02*
D03*
X115000D02*
D03*
X85000Y198500D02*
D03*
X115000D02*
D03*
X85000Y188500D02*
D03*
X115000D02*
D03*
X85000Y178500D02*
D03*
X115000D02*
D03*
X85000Y168500D02*
D03*
X115000D02*
D03*
X85000Y158500D02*
D03*
X115000D02*
D03*
X85000Y148500D02*
D03*
X115000D02*
D03*
X85000Y138500D02*
D03*
X115000D02*
D03*
X85000Y128500D02*
D03*
X115000D02*
D03*
X85000Y118500D02*
D03*
X115000D02*
D03*
X85000Y108500D02*
D03*
X115000D02*
D03*
X85000Y98500D02*
D03*
X115000D02*
D03*
X85000Y88500D02*
D03*
X115000D02*
D03*
X85000Y78500D02*
D03*
X115000D02*
D03*
X85000Y68500D02*
D03*
X115000D02*
D03*
D12*
X180000Y429500D02*
D03*
X10000D02*
D03*
X85000Y258500D02*
D03*
M02*
