G04 Layer_Color=65535*
%FSLAX25Y25*%
%MOIN*%
G70*
G01*
G75*
%ADD10C,0.00800*%
%ADD13C,0.00787*%
D10*
X65500Y260165D02*
X66333Y260998D01*
X67999D01*
X68832Y260165D01*
Y259332D01*
X67999Y258499D01*
X67166D01*
X67999D01*
X68832Y257666D01*
Y256833D01*
X67999Y256000D01*
X66333D01*
X65500Y256833D01*
X70498Y256000D02*
Y256833D01*
X71331D01*
Y256000D01*
X70498D01*
X74664Y260165D02*
X75497Y260998D01*
X77163D01*
X77996Y260165D01*
Y259332D01*
X77163Y258499D01*
X76330D01*
X77163D01*
X77996Y257666D01*
Y256833D01*
X77163Y256000D01*
X75497D01*
X74664Y256833D01*
X79662Y260998D02*
Y257666D01*
X81328Y256000D01*
X82994Y257666D01*
Y260998D01*
X96502Y114500D02*
Y117832D01*
Y116166D01*
X101500D01*
Y119498D02*
Y121165D01*
Y120331D01*
X98168D01*
Y119498D01*
Y123664D02*
X101500Y125330D01*
X98168Y126996D01*
Y129495D02*
Y131161D01*
X99001Y131994D01*
X101500D01*
Y129495D01*
X100667Y128662D01*
X99834Y129495D01*
Y131994D01*
X97335Y141991D02*
X96502Y141158D01*
Y139492D01*
X97335Y138659D01*
X100667D01*
X101500Y139492D01*
Y141158D01*
X100667Y141991D01*
X101500Y143657D02*
Y145323D01*
Y144490D01*
X96502D01*
X97335Y143657D01*
X101500Y151155D02*
Y147822D01*
X98168Y151155D01*
X97335D01*
X96502Y150322D01*
Y148656D01*
X97335Y147822D01*
Y152821D02*
X96502Y153654D01*
Y155320D01*
X97335Y156153D01*
X98168D01*
X99001Y155320D01*
Y154487D01*
Y155320D01*
X99834Y156153D01*
X100667D01*
X101500Y155320D01*
Y153654D01*
X100667Y152821D01*
X96502Y162818D02*
X101500D01*
Y165317D01*
X100667Y166150D01*
X99834D01*
X99001Y165317D01*
Y162818D01*
Y165317D01*
X98168Y166150D01*
X97335D01*
X96502Y165317D01*
Y162818D01*
X98168Y167816D02*
X101500D01*
X99834D01*
X99001Y168649D01*
X98168Y169482D01*
Y170315D01*
X101500Y175314D02*
Y173647D01*
X100667Y172814D01*
X99001D01*
X98168Y173647D01*
Y175314D01*
X99001Y176147D01*
X99834D01*
Y172814D01*
X98168Y178646D02*
Y180312D01*
X99001Y181145D01*
X101500D01*
Y178646D01*
X100667Y177813D01*
X99834Y178646D01*
Y181145D01*
X101500Y182811D02*
X96502D01*
X99834D02*
X98168Y185310D01*
X99834Y182811D02*
X101500Y185310D01*
Y188643D02*
Y190309D01*
X100667Y191142D01*
X99001D01*
X98168Y190309D01*
Y188643D01*
X99001Y187810D01*
X100667D01*
X101500Y188643D01*
X98168Y192808D02*
X100667D01*
X101500Y193641D01*
Y196140D01*
X98168D01*
X97335Y198639D02*
X98168D01*
Y197806D01*
Y199472D01*
Y198639D01*
X100667D01*
X101500Y199472D01*
X65500Y246000D02*
Y250998D01*
X67999D01*
X68832Y250165D01*
Y248499D01*
X67999Y247666D01*
X65500D01*
X70498Y250998D02*
Y246000D01*
X72998D01*
X73831Y246833D01*
Y247666D01*
X72998Y248499D01*
X70498D01*
X72998D01*
X73831Y249332D01*
Y250165D01*
X72998Y250998D01*
X70498D01*
X78829D02*
X75497D01*
Y248499D01*
X77163Y249332D01*
X77996D01*
X78829Y248499D01*
Y246833D01*
X77996Y246000D01*
X76330D01*
X75497Y246833D01*
X65500Y236000D02*
Y240998D01*
X67999D01*
X68832Y240165D01*
Y238499D01*
X67999Y237666D01*
X65500D01*
X70498Y240998D02*
Y236000D01*
X72998D01*
X73831Y236833D01*
Y237666D01*
X72998Y238499D01*
X70498D01*
X72998D01*
X73831Y239332D01*
Y240165D01*
X72998Y240998D01*
X70498D01*
X75497Y240165D02*
X76330Y240998D01*
X77996D01*
X78829Y240165D01*
Y236833D01*
X77996Y236000D01*
X76330D01*
X75497Y236833D01*
Y240165D01*
X65500Y226000D02*
Y230998D01*
X67999D01*
X68832Y230165D01*
Y228499D01*
X67999Y227666D01*
X65500D01*
X70498Y230998D02*
Y226000D01*
X72998D01*
X73831Y226833D01*
Y227666D01*
X72998Y228499D01*
X70498D01*
X72998D01*
X73831Y229332D01*
Y230165D01*
X72998Y230998D01*
X70498D01*
X75497Y226000D02*
X77163D01*
X76330D01*
Y230998D01*
X75497Y230165D01*
X65500Y216000D02*
Y220998D01*
X67999D01*
X68832Y220165D01*
Y218499D01*
X67999Y217666D01*
X65500D01*
X73831Y220998D02*
X70498D01*
Y216000D01*
X73831D01*
X70498Y218499D02*
X72164D01*
X77996Y216000D02*
Y220998D01*
X75497Y218499D01*
X78829D01*
X65500Y206000D02*
Y210998D01*
X67999D01*
X68832Y210165D01*
Y208499D01*
X67999Y207666D01*
X65500D01*
X73831Y210998D02*
X70498D01*
Y206000D01*
X73831D01*
X70498Y208499D02*
X72164D01*
X78829Y210998D02*
X75497D01*
Y208499D01*
X77163Y209332D01*
X77996D01*
X78829Y208499D01*
Y206833D01*
X77996Y206000D01*
X76330D01*
X75497Y206833D01*
X65500Y196000D02*
Y200998D01*
X67999D01*
X68832Y200165D01*
Y198499D01*
X67999Y197666D01*
X65500D01*
X70498Y200998D02*
Y196000D01*
X72998D01*
X73831Y196833D01*
Y197666D01*
X72998Y198499D01*
X70498D01*
X72998D01*
X73831Y199332D01*
Y200165D01*
X72998Y200998D01*
X70498D01*
X77996Y196000D02*
Y200998D01*
X75497Y198499D01*
X78829D01*
X65500Y186000D02*
Y190998D01*
X67999D01*
X68832Y190165D01*
Y188499D01*
X67999Y187666D01*
X65500D01*
X70498Y186000D02*
Y189332D01*
X72164Y190998D01*
X73831Y189332D01*
Y186000D01*
Y188499D01*
X70498D01*
X78829Y190998D02*
X75497D01*
Y188499D01*
X77163Y189332D01*
X77996D01*
X78829Y188499D01*
Y186833D01*
X77996Y186000D01*
X76330D01*
X75497Y186833D01*
X65500Y176000D02*
Y180998D01*
X67999D01*
X68832Y180165D01*
Y178499D01*
X67999Y177666D01*
X65500D01*
X70498Y176000D02*
Y179332D01*
X72164Y180998D01*
X73831Y179332D01*
Y176000D01*
Y178499D01*
X70498D01*
X78829Y180998D02*
X77163Y180165D01*
X75497Y178499D01*
Y176833D01*
X76330Y176000D01*
X77996D01*
X78829Y176833D01*
Y177666D01*
X77996Y178499D01*
X75497D01*
X65500Y166000D02*
Y170998D01*
X67999D01*
X68832Y170165D01*
Y168499D01*
X67999Y167666D01*
X65500D01*
X70498Y166000D02*
Y169332D01*
X72164Y170998D01*
X73831Y169332D01*
Y166000D01*
Y168499D01*
X70498D01*
X75497Y170998D02*
X78829D01*
Y170165D01*
X75497Y166833D01*
Y166000D01*
X65500Y160998D02*
Y157666D01*
X67166Y156000D01*
X68832Y157666D01*
Y160998D01*
X70498D02*
Y156000D01*
X72998D01*
X73831Y156833D01*
Y157666D01*
X72998Y158499D01*
X70498D01*
X72998D01*
X73831Y159332D01*
Y160165D01*
X72998Y160998D01*
X70498D01*
X78829Y160165D02*
X77996Y160998D01*
X76330D01*
X75497Y160165D01*
Y159332D01*
X76330Y158499D01*
X77996D01*
X78829Y157666D01*
Y156833D01*
X77996Y156000D01*
X76330D01*
X75497Y156833D01*
X68832Y150165D02*
X67999Y150998D01*
X66333D01*
X65500Y150165D01*
Y146833D01*
X66333Y146000D01*
X67999D01*
X68832Y146833D01*
Y148499D01*
X67166D01*
X70498Y146000D02*
Y150998D01*
X73831Y146000D01*
Y150998D01*
X75497D02*
Y146000D01*
X77996D01*
X78829Y146833D01*
Y150165D01*
X77996Y150998D01*
X75497D01*
X65500Y136000D02*
Y140998D01*
X67999D01*
X68832Y140165D01*
Y138499D01*
X67999Y137666D01*
X65500D01*
X70498Y140998D02*
Y136000D01*
X72998D01*
X73831Y136833D01*
Y140165D01*
X72998Y140998D01*
X70498D01*
X75497Y140165D02*
X76330Y140998D01*
X77996D01*
X78829Y140165D01*
Y136833D01*
X77996Y136000D01*
X76330D01*
X75497Y136833D01*
Y140165D01*
X65500Y126000D02*
Y130998D01*
X67999D01*
X68832Y130165D01*
Y128499D01*
X67999Y127666D01*
X65500D01*
X70498Y130998D02*
Y126000D01*
X72998D01*
X73831Y126833D01*
Y130165D01*
X72998Y130998D01*
X70498D01*
X75497Y126000D02*
X77163D01*
X76330D01*
Y130998D01*
X75497Y130165D01*
X65500Y116000D02*
Y120998D01*
X67999D01*
X68832Y120165D01*
Y118499D01*
X67999Y117666D01*
X65500D01*
X70498Y120998D02*
Y116000D01*
X72998D01*
X73831Y116833D01*
Y120165D01*
X72998Y120998D01*
X70498D01*
X78829Y116000D02*
X75497D01*
X78829Y119332D01*
Y120165D01*
X77996Y120998D01*
X76330D01*
X75497Y120165D01*
X65500Y106000D02*
Y110998D01*
X67999D01*
X68832Y110165D01*
Y108499D01*
X67999Y107666D01*
X65500D01*
X70498Y110998D02*
Y106000D01*
X72998D01*
X73831Y106833D01*
Y110165D01*
X72998Y110998D01*
X70498D01*
X75497Y110165D02*
X76330Y110998D01*
X77996D01*
X78829Y110165D01*
Y109332D01*
X77996Y108499D01*
X77163D01*
X77996D01*
X78829Y107666D01*
Y106833D01*
X77996Y106000D01*
X76330D01*
X75497Y106833D01*
X65500Y96000D02*
Y100998D01*
X67999D01*
X68832Y100165D01*
Y98499D01*
X67999Y97666D01*
X65500D01*
X73831Y100998D02*
X70498D01*
Y96000D01*
X73831D01*
X70498Y98499D02*
X72164D01*
X75497Y96000D02*
X77163D01*
X76330D01*
Y100998D01*
X75497Y100165D01*
X65500Y86000D02*
Y90998D01*
X67999D01*
X68832Y90165D01*
Y88499D01*
X67999Y87666D01*
X65500D01*
X73831Y90998D02*
X70498D01*
Y86000D01*
X73831D01*
X70498Y88499D02*
X72164D01*
X78829Y86000D02*
X75497D01*
X78829Y89332D01*
Y90165D01*
X77996Y90998D01*
X76330D01*
X75497Y90165D01*
X65500Y76000D02*
Y80998D01*
X67999D01*
X68832Y80165D01*
Y78499D01*
X67999Y77666D01*
X65500D01*
X73831Y80998D02*
X70498D01*
Y76000D01*
X73831D01*
X70498Y78499D02*
X72164D01*
X75497Y80165D02*
X76330Y80998D01*
X77996D01*
X78829Y80165D01*
Y79332D01*
X77996Y78499D01*
X77163D01*
X77996D01*
X78829Y77666D01*
Y76833D01*
X77996Y76000D01*
X76330D01*
X75497Y76833D01*
X65500Y66000D02*
Y70998D01*
X67999D01*
X68832Y70165D01*
Y68499D01*
X67999Y67666D01*
X65500D01*
X73831Y70998D02*
X70498D01*
Y68499D01*
X72164D01*
X70498D01*
Y66000D01*
X75497D02*
X77163D01*
X76330D01*
Y70998D01*
X75497Y70165D01*
X121000Y66000D02*
Y70998D01*
X123499D01*
X124332Y70165D01*
Y68499D01*
X123499Y67666D01*
X121000D01*
X129331Y70998D02*
X125998D01*
Y68499D01*
X127664D01*
X125998D01*
Y66000D01*
X133496D02*
Y70998D01*
X130997Y68499D01*
X134329D01*
X121000Y76000D02*
Y80998D01*
X123499D01*
X124332Y80165D01*
Y78499D01*
X123499Y77666D01*
X121000D01*
X125998Y80998D02*
Y76000D01*
X128498D01*
X129331Y76833D01*
Y80165D01*
X128498Y80998D01*
X125998D01*
X130997D02*
X134329D01*
Y80165D01*
X130997Y76833D01*
Y76000D01*
X121000Y86000D02*
Y90998D01*
X123499D01*
X124332Y90165D01*
Y88499D01*
X123499Y87666D01*
X121000D01*
X125998Y90998D02*
Y86000D01*
X128498D01*
X129331Y86833D01*
Y90165D01*
X128498Y90998D01*
X125998D01*
X134329D02*
X132663Y90165D01*
X130997Y88499D01*
Y86833D01*
X131830Y86000D01*
X133496D01*
X134329Y86833D01*
Y87666D01*
X133496Y88499D01*
X130997D01*
X121000Y96000D02*
Y100998D01*
X123499D01*
X124332Y100165D01*
Y98499D01*
X123499Y97666D01*
X121000D01*
X129331Y100165D02*
X128498Y100998D01*
X126831D01*
X125998Y100165D01*
Y96833D01*
X126831Y96000D01*
X128498D01*
X129331Y96833D01*
X130997Y100998D02*
X134329D01*
Y100165D01*
X130997Y96833D01*
Y96000D01*
X121000Y106000D02*
Y110998D01*
X123499D01*
X124332Y110165D01*
Y108499D01*
X123499Y107666D01*
X121000D01*
X129331Y110165D02*
X128498Y110998D01*
X126831D01*
X125998Y110165D01*
Y106833D01*
X126831Y106000D01*
X128498D01*
X129331Y106833D01*
X134329Y110998D02*
X132663Y110165D01*
X130997Y108499D01*
Y106833D01*
X131830Y106000D01*
X133496D01*
X134329Y106833D01*
Y107666D01*
X133496Y108499D01*
X130997D01*
X121000Y126000D02*
Y130998D01*
X123499D01*
X124332Y130165D01*
Y128499D01*
X123499Y127666D01*
X121000D01*
X129331Y130165D02*
X128498Y130998D01*
X126831D01*
X125998Y130165D01*
Y126833D01*
X126831Y126000D01*
X128498D01*
X129331Y126833D01*
X133496Y126000D02*
Y130998D01*
X130997Y128499D01*
X134329D01*
X121000Y136000D02*
Y140998D01*
X123499D01*
X124332Y140165D01*
Y138499D01*
X123499Y137666D01*
X121000D01*
X125998Y140998D02*
Y136000D01*
X128498D01*
X129331Y136833D01*
Y137666D01*
X128498Y138499D01*
X125998D01*
X128498D01*
X129331Y139332D01*
Y140165D01*
X128498Y140998D01*
X125998D01*
X130997Y140165D02*
X131830Y140998D01*
X133496D01*
X134329Y140165D01*
Y139332D01*
X133496Y138499D01*
X132663D01*
X133496D01*
X134329Y137666D01*
Y136833D01*
X133496Y136000D01*
X131830D01*
X130997Y136833D01*
X121000Y146000D02*
Y150998D01*
X123499D01*
X124332Y150165D01*
Y148499D01*
X123499Y147666D01*
X121000D01*
X129331Y150998D02*
X125998D01*
Y148499D01*
X127664D01*
X125998D01*
Y146000D01*
X130997Y150165D02*
X131830Y150998D01*
X133496D01*
X134329Y150165D01*
Y149332D01*
X133496Y148499D01*
X132663D01*
X133496D01*
X134329Y147666D01*
Y146833D01*
X133496Y146000D01*
X131830D01*
X130997Y146833D01*
X121000Y156000D02*
Y160998D01*
X123499D01*
X124332Y160165D01*
Y158499D01*
X123499Y157666D01*
X121000D01*
X129331Y160998D02*
X125998D01*
Y158499D01*
X127664D01*
X125998D01*
Y156000D01*
X134329D02*
X130997D01*
X134329Y159332D01*
Y160165D01*
X133496Y160998D01*
X131830D01*
X130997Y160165D01*
X121000Y166000D02*
Y170998D01*
X123499D01*
X124332Y170165D01*
Y168499D01*
X123499Y167666D01*
X121000D01*
X125998Y166000D02*
Y169332D01*
X127664Y170998D01*
X129331Y169332D01*
Y166000D01*
Y168499D01*
X125998D01*
X134329Y166000D02*
X130997D01*
X134329Y169332D01*
Y170165D01*
X133496Y170998D01*
X131830D01*
X130997Y170165D01*
X121000Y176000D02*
Y180998D01*
X123499D01*
X124332Y180165D01*
Y178499D01*
X123499Y177666D01*
X121000D01*
X125998Y176000D02*
Y179332D01*
X127664Y180998D01*
X129331Y179332D01*
Y176000D01*
Y178499D01*
X125998D01*
X130997Y180165D02*
X131830Y180998D01*
X133496D01*
X134329Y180165D01*
Y179332D01*
X133496Y178499D01*
X132663D01*
X133496D01*
X134329Y177666D01*
Y176833D01*
X133496Y176000D01*
X131830D01*
X130997Y176833D01*
X121000Y186000D02*
Y190998D01*
X123499D01*
X124332Y190165D01*
Y188499D01*
X123499Y187666D01*
X121000D01*
X125998Y186000D02*
Y189332D01*
X127664Y190998D01*
X129331Y189332D01*
Y186000D01*
Y188499D01*
X125998D01*
X133496Y186000D02*
Y190998D01*
X130997Y188499D01*
X134329D01*
X121000Y196000D02*
Y200998D01*
X123499D01*
X124332Y200165D01*
Y198499D01*
X123499Y197666D01*
X121000D01*
X125998Y200998D02*
Y196000D01*
X128498D01*
X129331Y196833D01*
Y197666D01*
X128498Y198499D01*
X125998D01*
X128498D01*
X129331Y199332D01*
Y200165D01*
X128498Y200998D01*
X125998D01*
X134329D02*
X132663Y200165D01*
X130997Y198499D01*
Y196833D01*
X131830Y196000D01*
X133496D01*
X134329Y196833D01*
Y197666D01*
X133496Y198499D01*
X130997D01*
X121000Y206000D02*
Y210998D01*
X123499D01*
X124332Y210165D01*
Y208499D01*
X123499Y207666D01*
X121000D01*
X125998Y210998D02*
Y206000D01*
X128498D01*
X129331Y206833D01*
Y207666D01*
X128498Y208499D01*
X125998D01*
X128498D01*
X129331Y209332D01*
Y210165D01*
X128498Y210998D01*
X125998D01*
X130997D02*
X134329D01*
Y210165D01*
X130997Y206833D01*
Y206000D01*
X121000Y216000D02*
Y220998D01*
X123499D01*
X124332Y220165D01*
Y218499D01*
X123499Y217666D01*
X121000D01*
X122666D02*
X124332Y216000D01*
X129331Y220165D02*
X128498Y220998D01*
X126831D01*
X125998Y220165D01*
Y219332D01*
X126831Y218499D01*
X128498D01*
X129331Y217666D01*
Y216833D01*
X128498Y216000D01*
X126831D01*
X125998Y216833D01*
X130997Y220998D02*
X134329D01*
X132663D01*
Y216000D01*
X121000Y226000D02*
Y230998D01*
X123499D01*
X124332Y230165D01*
Y228499D01*
X123499Y227666D01*
X121000D01*
X129331Y230998D02*
X125998D01*
Y228499D01*
X127664D01*
X125998D01*
Y226000D01*
X130997Y230165D02*
X131830Y230998D01*
X133496D01*
X134329Y230165D01*
Y226833D01*
X133496Y226000D01*
X131830D01*
X130997Y226833D01*
Y230165D01*
X121000Y236000D02*
Y240998D01*
X123499D01*
X124332Y240165D01*
Y238499D01*
X123499Y237666D01*
X121000D01*
X129331Y240998D02*
X125998D01*
Y236000D01*
X129331D01*
X125998Y238499D02*
X127664D01*
X130997Y240165D02*
X131830Y240998D01*
X133496D01*
X134329Y240165D01*
Y236833D01*
X133496Y236000D01*
X131830D01*
X130997Y236833D01*
Y240165D01*
X121000Y246000D02*
Y250998D01*
X123499D01*
X124332Y250165D01*
Y248499D01*
X123499Y247666D01*
X121000D01*
X125998Y250998D02*
Y246000D01*
X128498D01*
X129331Y246833D01*
Y247666D01*
X128498Y248499D01*
X125998D01*
X128498D01*
X129331Y249332D01*
Y250165D01*
X128498Y250998D01*
X125998D01*
X134329Y246000D02*
X130997D01*
X134329Y249332D01*
Y250165D01*
X133496Y250998D01*
X131830D01*
X130997Y250165D01*
X124332Y260165D02*
X123499Y260998D01*
X121833D01*
X121000Y260165D01*
Y256833D01*
X121833Y256000D01*
X123499D01*
X124332Y256833D01*
Y258499D01*
X122666D01*
X125998Y256000D02*
Y260998D01*
X129331Y256000D01*
Y260998D01*
X130997D02*
Y256000D01*
X133496D01*
X134329Y256833D01*
Y260165D01*
X133496Y260998D01*
X130997D01*
X121000Y116000D02*
Y120998D01*
X123499D01*
X124332Y120165D01*
Y118499D01*
X123499Y117666D01*
X121000D01*
X129331Y120165D02*
X128498Y120998D01*
X126831D01*
X125998Y120165D01*
Y116833D01*
X126831Y116000D01*
X128498D01*
X129331Y116833D01*
X134329Y120998D02*
X130997D01*
Y118499D01*
X132663Y119332D01*
X133496D01*
X134329Y118499D01*
Y116833D01*
X133496Y116000D01*
X131830D01*
X130997Y116833D01*
D13*
X5000Y427000D02*
Y434500D01*
M02*
