G04 Layer_Physical_Order=1*
G04 Layer_Color=255*
%FSLAX25Y25*%
%MOIN*%
G70*
G01*
G75*
%ADD10C,0.00800*%
%ADD11C,0.05906*%
%ADD12R,0.05906X0.05906*%
D10*
X10000Y339500D02*
X15000Y334500D01*
Y344500D02*
X36000D01*
X10000Y349500D02*
X15000Y344500D01*
X15500Y354000D02*
X36000D01*
X10000Y359500D02*
X15500Y354000D01*
X15000Y364500D02*
X36000D01*
X10000Y369500D02*
X15000Y364500D01*
Y374500D02*
X36000D01*
X10000Y379500D02*
X15000Y374500D01*
X15000Y384500D02*
X36000D01*
X10000Y389500D02*
X15000Y384500D01*
X15000Y394500D02*
X36000D01*
X10000Y399500D02*
X15000Y394500D01*
X15000Y404500D02*
X36000D01*
X10000Y409500D02*
X15000Y404500D01*
X15000Y414500D02*
X36000D01*
X10000Y419500D02*
X15000Y414500D01*
X14500Y425000D02*
X36000D01*
X10000Y429500D02*
X14500Y425000D01*
X15000Y334500D02*
X36000D01*
X164000D02*
X185000D01*
X185500Y425000D02*
X190000Y429500D01*
X164000Y425000D02*
X185500D01*
X137000Y398000D02*
X164000Y425000D01*
X185000Y414500D02*
X190000Y419500D01*
X164000Y414500D02*
X185000D01*
X138600Y389100D02*
X164000Y414500D01*
X185000Y404500D02*
X190000Y409500D01*
X164000Y404500D02*
X185000D01*
X140200Y380700D02*
X164000Y404500D01*
X185000Y394500D02*
X190000Y399500D01*
X164000Y394500D02*
X185000D01*
X141800Y372300D02*
X164000Y394500D01*
X185000Y384500D02*
X190000Y389500D01*
X164000Y384500D02*
X185000D01*
X143400Y363900D02*
X164000Y384500D01*
X185000Y374500D02*
X190000Y379500D01*
X164000Y374500D02*
X185000D01*
X145000Y355500D02*
X164000Y374500D01*
X185000Y364500D02*
X190000Y369500D01*
X164000Y364500D02*
X185000D01*
X146600Y347100D02*
X164000Y364500D01*
X184500Y354000D02*
X190000Y359500D01*
X164000Y354000D02*
X184500D01*
X148200Y338200D02*
X164000Y354000D01*
X185000Y344500D02*
X190000Y349500D01*
X164000Y344500D02*
X185000D01*
X149800Y330300D02*
X164000Y344500D01*
X185000Y334500D02*
X190000Y339500D01*
X120100Y310965D02*
X137000Y327865D01*
X121700Y310302D02*
X138600Y327202D01*
X123300Y309639D02*
X140200Y326539D01*
X124900Y308976D02*
X141800Y325876D01*
X126500Y308314D02*
X143400Y325214D01*
Y363900D01*
X141800Y325876D02*
Y372300D01*
X140200Y326539D02*
Y380700D01*
X138600Y327202D02*
Y389100D01*
X137000Y327865D02*
Y398000D01*
X134500Y305000D02*
X164000Y334500D01*
X132900Y305663D02*
X149800Y322563D01*
Y330300D01*
X131300Y306326D02*
X148200Y323225D01*
Y338200D01*
X129700Y306988D02*
X146600Y323888D01*
Y347100D01*
X128100Y307651D02*
X145000Y324551D01*
Y355500D01*
X78300Y255200D02*
X85000Y248500D01*
X75100Y238400D02*
X85000Y228500D01*
X76700Y246800D02*
X85000Y238500D01*
X79900Y263600D02*
X85000Y258500D01*
X71900Y221600D02*
X85000Y208500D01*
X65500Y188000D02*
X85000Y168500D01*
X67100Y196400D02*
X85000Y178500D01*
X68700Y204800D02*
X85000Y188500D01*
X70300Y213200D02*
Y306988D01*
X65500Y188000D02*
Y305000D01*
X36000Y334500D02*
X65500Y305000D01*
X67100Y196400D02*
Y305663D01*
X68700Y204800D02*
Y306326D01*
X71900Y221600D02*
Y307651D01*
X73500Y230000D02*
Y308314D01*
X75100Y238400D02*
Y308976D01*
X76700Y246800D02*
Y309639D01*
X78300Y255200D02*
Y310302D01*
X79900Y263600D02*
Y310965D01*
X120100Y263600D02*
Y310965D01*
X121700Y255200D02*
Y310302D01*
X123300Y246800D02*
Y309639D01*
X124900Y238400D02*
Y308976D01*
X126500Y230000D02*
Y308314D01*
X128100Y221600D02*
Y307651D01*
X131300Y204800D02*
Y306326D01*
X132900Y196400D02*
Y305663D01*
X134500Y188000D02*
Y305000D01*
X129700Y213200D02*
Y306988D01*
X36000Y344500D02*
X50200Y330300D01*
Y322563D02*
X67100Y305663D01*
X50200Y322563D02*
Y330300D01*
X36000Y354000D02*
X51800Y338200D01*
Y323225D02*
X68700Y306326D01*
X51800Y323225D02*
Y338200D01*
X36000Y364500D02*
X53400Y347100D01*
Y323888D02*
X70300Y306988D01*
X53400Y323888D02*
Y347100D01*
X36000Y374500D02*
X55000Y355500D01*
Y324551D02*
X71900Y307651D01*
X55000Y324551D02*
Y355500D01*
X36000Y384500D02*
X56600Y363900D01*
Y325214D02*
X73500Y308314D01*
X56600Y325214D02*
Y363900D01*
X36000Y394500D02*
X58200Y372300D01*
Y325876D02*
X75100Y308976D01*
X58200Y325876D02*
Y372300D01*
X36000Y404500D02*
X59800Y380700D01*
Y326539D02*
X76700Y309639D01*
X59800Y326539D02*
Y380700D01*
X36000Y414500D02*
X61400Y389100D01*
Y327202D02*
X78300Y310302D01*
X61400Y327202D02*
Y389100D01*
X36000Y425000D02*
X63000Y398000D01*
Y327865D02*
X79900Y310965D01*
X63000Y327865D02*
Y398000D01*
X70300Y213200D02*
X85000Y198500D01*
X73500Y230000D02*
X85000Y218500D01*
X115000Y208500D02*
X128100Y221600D01*
X115000Y228500D02*
X124900Y238400D01*
X115000Y178500D02*
X132900Y196400D01*
X115000Y258500D02*
X120100Y263600D01*
X115000Y198500D02*
X129700Y213200D01*
X115000Y248500D02*
X121700Y255200D01*
X115000Y218500D02*
X126500Y230000D01*
X115000Y188500D02*
X131300Y204800D01*
X115000Y168500D02*
X134500Y188000D01*
X115000Y238500D02*
X123300Y246800D01*
D11*
X190000Y339500D02*
D03*
X180000D02*
D03*
X190000Y349500D02*
D03*
X180000D02*
D03*
X190000Y359500D02*
D03*
X180000D02*
D03*
X190000Y369500D02*
D03*
X180000D02*
D03*
X190000Y379500D02*
D03*
X180000D02*
D03*
X190000Y389500D02*
D03*
X180000D02*
D03*
X190000Y399500D02*
D03*
X180000D02*
D03*
X190000Y409500D02*
D03*
X180000Y409500D02*
D03*
X190000Y419500D02*
D03*
X180000D02*
D03*
X190000Y429500D02*
D03*
X20000Y339500D02*
D03*
X10000Y339500D02*
D03*
X20000Y349500D02*
D03*
X10000Y349500D02*
D03*
X20000Y359500D02*
D03*
X10000Y359500D02*
D03*
X20000Y369500D02*
D03*
X10000Y369500D02*
D03*
X20000Y379500D02*
D03*
X10000D02*
D03*
X20000Y389500D02*
D03*
X10000Y389500D02*
D03*
X20000Y399500D02*
D03*
X10000D02*
D03*
X20000Y409500D02*
D03*
X10000Y409500D02*
D03*
X20000Y419500D02*
D03*
X10000D02*
D03*
X20000Y429500D02*
D03*
X115000Y258500D02*
D03*
X85000Y248500D02*
D03*
X115000D02*
D03*
X85000Y238500D02*
D03*
X115000D02*
D03*
X85000Y228500D02*
D03*
X115000D02*
D03*
X85000Y218500D02*
D03*
X115000D02*
D03*
X85000Y208500D02*
D03*
X115000D02*
D03*
X85000Y198500D02*
D03*
X115000D02*
D03*
X85000Y188500D02*
D03*
X115000D02*
D03*
X85000Y178500D02*
D03*
X115000D02*
D03*
X85000Y168500D02*
D03*
X115000D02*
D03*
X85000Y158500D02*
D03*
X115000D02*
D03*
X85000Y148500D02*
D03*
X115000D02*
D03*
X85000Y138500D02*
D03*
X115000D02*
D03*
X85000Y128500D02*
D03*
X115000D02*
D03*
X85000Y118500D02*
D03*
X115000D02*
D03*
X85000Y108500D02*
D03*
X115000D02*
D03*
X85000Y98500D02*
D03*
X115000D02*
D03*
X85000Y88500D02*
D03*
X115000D02*
D03*
X85000Y78500D02*
D03*
X115000D02*
D03*
X85000Y68500D02*
D03*
X115000D02*
D03*
D12*
X180000Y429500D02*
D03*
X10000D02*
D03*
X85000Y258500D02*
D03*
M02*
