G04 Layer_Color=16711935*
%FSLAX25Y25*%
%MOIN*%
G70*
G01*
G75*
%ADD14C,0.06706*%
%ADD15R,0.06706X0.06706*%
D14*
X190000Y339500D02*
D03*
X180000D02*
D03*
X190000Y349500D02*
D03*
X180000D02*
D03*
X190000Y359500D02*
D03*
X180000D02*
D03*
X190000Y369500D02*
D03*
X180000D02*
D03*
X190000Y379500D02*
D03*
X180000D02*
D03*
X190000Y389500D02*
D03*
X180000D02*
D03*
X190000Y399500D02*
D03*
X180000D02*
D03*
X190000Y409500D02*
D03*
X180000Y409500D02*
D03*
X190000Y419500D02*
D03*
X180000D02*
D03*
X190000Y429500D02*
D03*
X20000Y339500D02*
D03*
X10000Y339500D02*
D03*
X20000Y349500D02*
D03*
X10000Y349500D02*
D03*
X20000Y359500D02*
D03*
X10000Y359500D02*
D03*
X20000Y369500D02*
D03*
X10000Y369500D02*
D03*
X20000Y379500D02*
D03*
X10000D02*
D03*
X20000Y389500D02*
D03*
X10000Y389500D02*
D03*
X20000Y399500D02*
D03*
X10000D02*
D03*
X20000Y409500D02*
D03*
X10000Y409500D02*
D03*
X20000Y419500D02*
D03*
X10000D02*
D03*
X20000Y429500D02*
D03*
X115000Y258500D02*
D03*
X85000Y248500D02*
D03*
X115000D02*
D03*
X85000Y238500D02*
D03*
X115000D02*
D03*
X85000Y228500D02*
D03*
X115000D02*
D03*
X85000Y218500D02*
D03*
X115000D02*
D03*
X85000Y208500D02*
D03*
X115000D02*
D03*
X85000Y198500D02*
D03*
X115000D02*
D03*
X85000Y188500D02*
D03*
X115000D02*
D03*
X85000Y178500D02*
D03*
X115000D02*
D03*
X85000Y168500D02*
D03*
X115000D02*
D03*
X85000Y158500D02*
D03*
X115000D02*
D03*
X85000Y148500D02*
D03*
X115000D02*
D03*
X85000Y138500D02*
D03*
X115000D02*
D03*
X85000Y128500D02*
D03*
X115000D02*
D03*
X85000Y118500D02*
D03*
X115000D02*
D03*
X85000Y108500D02*
D03*
X115000D02*
D03*
X85000Y98500D02*
D03*
X115000D02*
D03*
X85000Y88500D02*
D03*
X115000D02*
D03*
X85000Y78500D02*
D03*
X115000D02*
D03*
X85000Y68500D02*
D03*
X115000D02*
D03*
D15*
X180000Y429500D02*
D03*
X10000D02*
D03*
X85000Y258500D02*
D03*
M02*
